<svg viewBox="0 0 36 36" xmlns="http://www.w3.org/2000/svg">
    <path style="fill:none" d="M0 0h36v36H0z"/>
    <clipPath id="a">
        <path d="M0 0h36v36H0z"/>
    </clipPath>
    <g clip-path="url(#a)">
        <path style="fill:#fff;fill-opacity:0" fill="none" d="M0 0h36v36H0z"/>
        <path d="m11.331 6.027 1.399 2.111c-3.851 1.876-6.497 5.743-6.497 10.205 0 6.298 5.272 11.412 11.767 11.412 6.495 0 11.767-5.114 11.767-11.412 0-4.383-2.553-8.193-6.295-10.104l1.397-2.106c4.407 2.379 7.381 6.971 7.381 12.21C32.25 26 25.896 32.277 18 32.277S3.75 26 3.75 18.343c0-5.318 3.064-9.969 7.581-12.316Zm8.158-2.304h-2.978v10.203h2.978V3.723Z" style="fill:#fff"/>
    </g>
</svg>
